<svg width="171" height="36" viewBox="0 0 171 36" fill="none" xmlns="http://www.w3.org/2000/svg">
<g clip-path="url(#clip0_161_991)">
<path fill-rule="evenodd" clip-rule="evenodd" d="M27.8333 18C27.8333 25.0877 22.0877 30.8333 15 30.8333C7.91234 30.8333 2.16666 25.0877 2.16666 18C2.16666 10.9123 7.91234 5.16666 15 5.16666C22.0877 5.16666 27.8333 10.9123 27.8333 18ZM30 18C30 26.2843 23.2843 33 15 33C6.71573 33 0 26.2843 0 18C0 9.71573 6.71573 3 15 3C23.2843 3 30 9.71573 30 18ZM23.2759 11.2759C23.2759 12.1329 22.5812 12.8276 21.7242 12.8276C20.8672 12.8276 20.1725 12.1329 20.1725 11.2759C20.1725 10.4189 20.8672 9.72418 21.7242 9.72418C22.5812 9.72418 23.2759 10.4189 23.2759 11.2759ZM10.4879 19.209C11.1556 21.7009 13.717 23.1797 16.2089 22.512C18.7008 21.8443 20.1796 19.2829 19.5119 16.791C18.8442 14.2991 16.2828 12.8203 13.7909 13.488C11.299 14.1557 9.82015 16.7171 10.4879 19.209ZM8.39503 19.7698C9.37244 23.4175 13.1219 25.5823 16.7696 24.6049C20.4174 23.6274 22.5821 19.878 21.6047 16.2302C20.6273 12.5825 16.8779 10.4177 13.2301 11.3952C9.58236 12.3726 7.41762 16.122 8.39503 19.7698Z" fill="url(#paint0_linear_161_991)"/>
<path d="M58.3239 14.8438C58.3617 14.3087 58.2197 13.8944 57.8977 13.6009C57.5805 13.3073 57.0786 13.1605 56.392 13.1605C55.9375 13.1605 55.5492 13.2197 55.2273 13.3381C54.9053 13.4517 54.652 13.6127 54.4673 13.821C54.2827 14.0246 54.1667 14.2614 54.1193 14.5312C54.0767 14.7443 54.0885 14.9337 54.1548 15.0994C54.2211 15.2652 54.3371 15.4119 54.5028 15.5398C54.6733 15.6676 54.884 15.7789 55.1349 15.8736C55.3906 15.9683 55.6771 16.0511 55.9943 16.1222L57.1875 16.4062C57.8788 16.5625 58.4777 16.7708 58.9844 17.0312C59.4957 17.2869 59.91 17.5971 60.2273 17.9616C60.5445 18.3215 60.7623 18.7358 60.8807 19.2045C60.9991 19.6733 61.0085 20.1989 60.9091 20.7812C60.7576 21.6998 60.3954 22.4882 59.8224 23.1463C59.2543 23.8045 58.5109 24.3087 57.5923 24.6591C56.6785 25.0095 55.6155 25.1847 54.4034 25.1847C53.1913 25.1847 52.1615 25.0024 51.3139 24.6378C50.4711 24.2685 49.8603 23.7121 49.4815 22.9688C49.1027 22.2254 49.0009 21.2879 49.1761 20.1562H52.5355C52.4834 20.625 52.5426 21.0156 52.7131 21.3281C52.8883 21.6406 53.1581 21.8774 53.5227 22.0384C53.8873 22.1993 54.3277 22.2798 54.8438 22.2798C55.3172 22.2798 55.7315 22.2159 56.0866 22.0881C56.4465 21.9602 56.733 21.7827 56.946 21.5554C57.1638 21.3281 57.2964 21.0677 57.3438 20.7741C57.3911 20.5043 57.3461 20.2699 57.2088 20.071C57.0762 19.8722 56.849 19.6993 56.527 19.5526C56.2098 19.4058 55.7931 19.2732 55.277 19.1548L53.821 18.7997C52.6184 18.5062 51.7069 18.0374 51.0866 17.3935C50.4711 16.7495 50.2533 15.8759 50.4332 14.7727C50.5848 13.8684 50.9588 13.0777 51.5554 12.4006C52.1567 11.7235 52.9167 11.1979 53.8352 10.8239C54.7585 10.4451 55.7741 10.2557 56.8821 10.2557C58.009 10.2557 58.956 10.4474 59.723 10.831C60.4948 11.2098 61.0511 11.7448 61.392 12.4361C61.7377 13.1226 61.8371 13.9252 61.6903 14.8438H58.3239ZM67.0739 25.206C65.9233 25.206 64.974 24.9692 64.2259 24.4957C63.4825 24.0223 62.9593 23.3617 62.6562 22.5142C62.3532 21.6667 62.294 20.6818 62.4787 19.5597C62.6634 18.4422 63.0445 17.4621 63.6222 16.6193C64.1998 15.7765 64.9384 15.1207 65.8381 14.652C66.7377 14.1832 67.758 13.9489 68.8991 13.9489C70.045 13.9489 70.9896 14.1856 71.733 14.6591C72.4811 15.1326 73.0066 15.7931 73.3097 16.6406C73.6174 17.4882 73.679 18.4754 73.4943 19.6023C73.3097 20.7197 72.9261 21.6998 72.3438 22.5426C71.7614 23.3807 71.0227 24.0341 70.1278 24.5028C69.233 24.9716 68.215 25.206 67.0739 25.206ZM67.4645 22.5852C67.8906 22.5852 68.2718 22.4574 68.608 22.2017C68.9489 21.946 69.2353 21.5885 69.4673 21.1293C69.6993 20.67 69.8651 20.1373 69.9645 19.5312C70.0639 18.9347 70.0734 18.4115 69.9929 17.9616C69.9171 17.5071 69.7562 17.1544 69.5099 16.9034C69.2637 16.6477 68.9299 16.5199 68.5085 16.5199C68.0824 16.5199 67.6989 16.6501 67.358 16.9105C67.017 17.1662 66.7306 17.5237 66.4986 17.983C66.2713 18.4375 66.108 18.9702 66.0085 19.581C65.9091 20.1776 65.8973 20.7008 65.973 21.1506C66.0488 21.6004 66.2121 21.9531 66.4631 22.2088C66.714 22.4598 67.0478 22.5852 67.4645 22.5852ZM79.4354 25.206C78.2848 25.206 77.3355 24.9692 76.5874 24.4957C75.844 24.0223 75.3232 23.3641 75.0249 22.5213C74.7266 21.6738 74.6721 20.6937 74.8615 19.581C75.0414 18.4635 75.4226 17.4834 76.005 16.6406C76.5874 15.7931 77.3307 15.1326 78.2351 14.6591C79.1394 14.1856 80.1622 13.9489 81.3033 13.9489C82.3118 13.9489 83.1593 14.1312 83.8459 14.4957C84.5372 14.8603 85.0367 15.3764 85.3445 16.044C85.657 16.7069 85.7493 17.4858 85.6214 18.3807H82.3757C82.4041 17.8267 82.2905 17.3911 82.0348 17.0739C81.7791 16.7519 81.4074 16.5909 80.9197 16.5909C80.5078 16.5909 80.129 16.7045 79.7834 16.9318C79.4425 17.1544 79.1513 17.4858 78.9098 17.9261C78.6731 18.3617 78.5026 18.9015 78.3984 19.5455C78.2943 20.1894 78.2872 20.7339 78.3771 21.179C78.4718 21.6193 78.6494 21.9531 78.9098 22.1804C79.175 22.4029 79.5111 22.5142 79.9183 22.5142C80.2403 22.5142 80.5386 22.4455 80.8132 22.3082C81.0878 22.1709 81.3269 21.9697 81.5305 21.7045C81.7341 21.4347 81.8928 21.108 82.0064 20.7244H85.245C85.0604 21.6288 84.7029 22.4171 84.1726 23.0895C83.647 23.7571 82.9818 24.2779 82.1768 24.652C81.3719 25.0213 80.4581 25.206 79.4354 25.206ZM86.305 25L88.1232 14.0909H91.5962L89.7781 25H86.305ZM90.1048 12.8125C89.6123 12.8125 89.2122 12.6491 88.9045 12.3224C88.5967 11.9957 88.476 11.6051 88.5423 11.1506C88.6085 10.6913 88.8406 10.3007 89.2383 9.97869C89.636 9.65672 90.0787 9.49574 90.5664 9.49574C91.0588 9.49574 91.4542 9.65672 91.7525 9.97869C92.0555 10.3007 92.1739 10.6913 92.1076 11.1506C92.0508 11.6051 91.8235 11.9957 91.4258 12.3224C91.0328 12.6491 90.5924 12.8125 90.1048 12.8125ZM95.0355 25.1847C94.3442 25.1847 93.7476 25.0687 93.2457 24.8366C92.7486 24.5999 92.384 24.2424 92.152 23.7642C91.9247 23.286 91.8703 22.6894 91.9886 21.9744C92.0928 21.3684 92.2846 20.8594 92.5639 20.4474C92.848 20.0308 93.196 19.6922 93.608 19.4318C94.0246 19.1714 94.4886 18.9725 95 18.8352C95.5114 18.6979 96.0464 18.6056 96.6051 18.5582C97.2301 18.5014 97.7367 18.4399 98.125 18.3736C98.518 18.3073 98.8116 18.215 99.0057 18.0966C99.1998 17.9735 99.3182 17.803 99.3608 17.5852V17.5497C99.4176 17.1851 99.3395 16.9034 99.1264 16.7045C98.9134 16.5057 98.5938 16.4062 98.1676 16.4062C97.7131 16.4062 97.3248 16.5057 97.0028 16.7045C96.6809 16.9034 96.456 17.178 96.3281 17.5284L93.1463 17.4148C93.3452 16.7519 93.6861 16.16 94.169 15.6392C94.652 15.1136 95.2652 14.7017 96.0085 14.4034C96.7566 14.1004 97.6207 13.9489 98.6009 13.9489C99.2921 13.9489 99.9171 14.0317 100.476 14.1974C101.035 14.3584 101.506 14.5952 101.889 14.9077C102.277 15.2154 102.554 15.5942 102.72 16.044C102.886 16.4938 102.921 17.0076 102.827 17.5852L101.584 25H98.3168L98.5724 23.4801H98.4872C98.2315 23.8494 97.9309 24.1619 97.5852 24.4176C97.2443 24.6733 96.8608 24.8651 96.4347 24.9929C96.0085 25.1207 95.5421 25.1847 95.0355 25.1847ZM96.4986 22.9119C96.8632 22.9119 97.2088 22.8362 97.5355 22.6847C97.8622 22.5331 98.1368 22.3248 98.3594 22.0597C98.5866 21.7898 98.7311 21.4773 98.7926 21.1222L98.956 20.0852C98.8565 20.1373 98.7311 20.1847 98.5795 20.2273C98.428 20.2699 98.267 20.3101 98.0966 20.348C97.9261 20.3812 97.7509 20.4143 97.571 20.4474C97.3958 20.4759 97.2277 20.5019 97.0668 20.5256C96.7259 20.5777 96.4299 20.6581 96.179 20.767C95.928 20.8759 95.7268 21.018 95.5753 21.1932C95.4285 21.3636 95.3385 21.5672 95.3054 21.804C95.2486 22.1591 95.3314 22.4337 95.554 22.6278C95.7765 22.8172 96.0914 22.9119 96.4986 22.9119ZM109.595 10.4545L107.18 25H103.707L106.122 10.4545H109.595ZM113.688 25L116.103 10.4545H119.618L118.652 16.2926H124.384L125.35 10.4545H128.858L126.444 25H122.935L123.901 19.1548H118.169L117.203 25H113.688ZM136.468 20.2912L137.505 14.0909H140.971L139.153 25H135.843L136.177 22.9688H136.064C135.727 23.6364 135.233 24.1667 134.579 24.5597C133.926 24.9479 133.19 25.142 132.37 25.142C131.627 25.142 131.002 24.9716 130.495 24.6307C129.989 24.2898 129.629 23.8139 129.416 23.2031C129.208 22.5876 129.17 21.8679 129.302 21.044L130.467 14.0909H133.94L132.896 20.3622C132.806 20.9541 132.884 21.4205 133.13 21.7614C133.381 22.1023 133.774 22.2727 134.309 22.2727C134.655 22.2727 134.979 22.197 135.282 22.0455C135.585 21.8892 135.841 21.6643 136.049 21.3707C136.262 21.0724 136.402 20.7126 136.468 20.2912ZM141.364 25L143.778 10.4545H147.251L146.349 15.9588H146.42C146.61 15.6274 146.861 15.3078 147.173 15C147.491 14.6922 147.872 14.4413 148.317 14.2472C148.762 14.0483 149.271 13.9489 149.844 13.9489C150.601 13.9489 151.276 14.1477 151.868 14.5455C152.46 14.9432 152.891 15.5563 153.161 16.3849C153.43 17.2135 153.459 18.2694 153.246 19.5526C153.042 20.7884 152.675 21.8229 152.145 22.6562C151.615 23.4896 150.982 24.1146 150.249 24.5312C149.519 24.9479 148.752 25.1562 147.947 25.1562C147.398 25.1562 146.937 25.0663 146.562 24.8864C146.193 24.7064 145.897 24.4697 145.675 24.1761C145.457 23.8826 145.305 23.5677 145.22 23.2315H145.085L144.801 25H141.364ZM145.675 19.5455C145.58 20.1326 145.575 20.6439 145.661 21.0795C145.75 21.5152 145.923 21.8537 146.179 22.0952C146.439 22.3319 146.783 22.4503 147.209 22.4503C147.635 22.4503 148.016 22.3319 148.352 22.0952C148.688 21.8537 148.97 21.5152 149.197 21.0795C149.425 20.6439 149.586 20.1326 149.68 19.5455C149.775 18.9583 149.78 18.4493 149.695 18.0185C149.614 17.5876 149.446 17.2538 149.19 17.017C148.935 16.7803 148.591 16.6619 148.161 16.6619C147.734 16.6619 147.351 16.7779 147.01 17.0099C146.674 17.242 146.39 17.5734 146.158 18.0043C145.93 18.4351 145.769 18.9489 145.675 19.5455Z" fill="white"/>
</g>
<defs>
<linearGradient id="paint0_linear_161_991" x1="15" y1="3" x2="15" y2="33" gradientUnits="userSpaceOnUse">
<stop stop-color="#877EFF"/>
<stop offset="0.461458" stop-color="#685DFF"/>
<stop offset="1" stop-color="#3121FF"/>
</linearGradient>
<clipPath id="clip0_161_991">
<rect width="171" height="36" fill="white"/>
</clipPath>
</defs>
</svg>
