<svg width="171" height="36" viewBox="0 0 171 36" fill="none" xmlns="http://www.w3.org/2000/svg">
<path fill-rule="evenodd" clip-rule="evenodd" d="M27.8333 18C27.8333 25.0877 22.0877 30.8333 15 30.8333C7.91234 30.8333 2.16666 25.0877 2.16666 18C2.16666 10.9123 7.91234 5.16666 15 5.16666C22.0877 5.16666 27.8333 10.9123 27.8333 18ZM30 18C30 26.2843 23.2843 33 15 33C6.71573 33 0 26.2843 0 18C0 9.71573 6.71573 3 15 3C23.2843 3 30 9.71573 30 18ZM23.2759 11.2759C23.2759 12.1329 22.5812 12.8276 21.7242 12.8276C20.8672 12.8276 20.1725 12.1329 20.1725 11.2759C20.1725 10.4189 20.8672 9.72418 21.7242 9.72418C22.5812 9.72418 23.2759 10.4189 23.2759 11.2759ZM10.4879 19.209C11.1556 21.7009 13.717 23.1797 16.2089 22.512C18.7008 21.8443 20.1796 19.2829 19.5119 16.791C18.8442 14.2991 16.2828 12.8203 13.7909 13.488C11.299 14.1557 9.82015 16.7171 10.4879 19.209ZM8.39503 19.7698C9.37244 23.4175 13.1219 25.5823 16.7696 24.6049C20.4174 23.6274 22.5821 19.878 21.6047 16.2302C20.6273 12.5825 16.8779 10.4177 13.2301 11.3952C9.58236 12.3726 7.41762 16.122 8.39503 19.7698Z" fill="url(#paint0_linear_161_991)"/>
<path d="M49.7301 14.8438C49.768 14.3087 49.6259 13.8944 49.304 13.6009C48.9867 13.3073 48.4848 13.1605 47.7983 13.1605C47.3438 13.1605 46.9555 13.2197 46.6335 13.3381C46.3116 13.4517 46.0582 13.6127 45.8736 13.821C45.6889 14.0246 45.5729 14.2614 45.5256 14.5312C45.483 14.7443 45.4948 14.9337 45.5611 15.0994C45.6274 15.2652 45.7434 15.4119 45.9091 15.5398C46.0795 15.6676 46.2902 15.7789 46.5412 15.8736C46.7969 15.9683 47.0833 16.0511 47.4006 16.1222L48.5938 16.4062C49.285 16.5625 49.884 16.7708 50.3906 17.0312C50.902 17.2869 51.3163 17.5971 51.6335 17.9616C51.9508 18.3215 52.1686 18.7358 52.2869 19.2045C52.4053 19.6733 52.4148 20.1989 52.3153 20.7812C52.1638 21.6998 51.8016 22.4882 51.2287 23.1463C50.6605 23.8045 49.9171 24.3087 48.9986 24.6591C48.0848 25.0095 47.0218 25.1847 45.8097 25.1847C44.5975 25.1847 43.5677 25.0024 42.7202 24.6378C41.8774 24.2685 41.2666 23.7121 40.8878 22.9688C40.509 22.2254 40.4072 21.2879 40.5824 20.1562H43.9418C43.8897 20.625 43.9489 21.0156 44.1193 21.3281C44.2945 21.6406 44.5644 21.8774 44.929 22.0384C45.2936 22.1993 45.7339 22.2798 46.25 22.2798C46.7235 22.2798 47.1378 22.2159 47.4929 22.0881C47.8527 21.9602 48.1392 21.7827 48.3523 21.5554C48.5701 21.3281 48.7027 21.0677 48.75 20.7741C48.7973 20.5043 48.7524 20.2699 48.6151 20.071C48.4825 19.8722 48.2552 19.6993 47.9332 19.5526C47.616 19.4058 47.1993 19.2732 46.6832 19.1548L45.2273 18.7997C44.0246 18.5062 43.1132 18.0374 42.4929 17.3935C41.8774 16.7495 41.6596 15.8759 41.8395 14.7727C41.991 13.8684 42.3651 13.0777 42.9616 12.4006C43.563 11.7235 44.3229 11.1979 45.2415 10.8239C46.1648 10.4451 47.1804 10.2557 48.2884 10.2557C49.4152 10.2557 50.3622 10.4474 51.1293 10.831C51.901 11.2098 52.4574 11.7448 52.7983 12.4361C53.1439 13.1226 53.2434 13.9252 53.0966 14.8438H49.7301ZM58.4801 25.206C57.3295 25.206 56.3802 24.9692 55.6321 24.4957C54.8887 24.0223 54.3655 23.3617 54.0625 22.5142C53.7595 21.6667 53.7003 20.6818 53.8849 19.5597C54.0696 18.4422 54.4508 17.4621 55.0284 16.6193C55.6061 15.7765 56.3447 15.1207 57.2443 14.652C58.1439 14.1832 59.1643 13.9489 60.3054 13.9489C61.4512 13.9489 62.3958 14.1856 63.1392 14.6591C63.8873 15.1326 64.4129 15.7931 64.7159 16.6406C65.0237 17.4882 65.0852 18.4754 64.9006 19.6023C64.7159 20.7197 64.3324 21.6998 63.75 22.5426C63.1676 23.3807 62.429 24.0341 61.5341 24.5028C60.6392 24.9716 59.6212 25.206 58.4801 25.206ZM58.8707 22.5852C59.2969 22.5852 59.678 22.4574 60.0142 22.2017C60.3551 21.946 60.6416 21.5885 60.8736 21.1293C61.1056 20.67 61.2713 20.1373 61.3707 19.5312C61.4702 18.9347 61.4796 18.4115 61.3991 17.9616C61.3234 17.5071 61.1624 17.1544 60.9162 16.9034C60.67 16.6477 60.3362 16.5199 59.9148 16.5199C59.4886 16.5199 59.1051 16.6501 58.7642 16.9105C58.4233 17.1662 58.1368 17.5237 57.9048 17.983C57.6776 18.4375 57.5142 18.9702 57.4148 19.581C57.3153 20.1776 57.3035 20.7008 57.3793 21.1506C57.455 21.6004 57.6184 21.9531 57.8693 22.2088C58.1203 22.4598 58.4541 22.5852 58.8707 22.5852ZM70.8416 25.206C69.6911 25.206 68.7417 24.9692 67.9936 24.4957C67.2502 24.0223 66.7294 23.3641 66.4311 22.5213C66.1328 21.6738 66.0784 20.6937 66.2678 19.581C66.4477 18.4635 66.8288 17.4834 67.4112 16.6406C67.9936 15.7931 68.737 15.1326 69.6413 14.6591C70.5457 14.1856 71.5684 13.9489 72.7095 13.9489C73.718 13.9489 74.5656 14.1312 75.2521 14.4957C75.9434 14.8603 76.4429 15.3764 76.7507 16.044C77.0632 16.7069 77.1555 17.4858 77.0277 18.3807H73.782C73.8104 17.8267 73.6967 17.3911 73.4411 17.0739C73.1854 16.7519 72.8137 16.5909 72.326 16.5909C71.9141 16.5909 71.5353 16.7045 71.1896 16.9318C70.8487 17.1544 70.5575 17.4858 70.3161 17.9261C70.0793 18.3617 69.9089 18.9015 69.8047 19.5455C69.7005 20.1894 69.6934 20.7339 69.7834 21.179C69.8781 21.6193 70.0556 21.9531 70.3161 22.1804C70.5812 22.4029 70.9174 22.5142 71.3246 22.5142C71.6465 22.5142 71.9448 22.4455 72.2195 22.3082C72.4941 22.1709 72.7332 21.9697 72.9368 21.7045C73.1404 21.4347 73.299 21.108 73.4126 20.7244H76.6513C76.4666 21.6288 76.1091 22.4171 75.5788 23.0895C75.0533 23.7571 74.388 24.2779 73.5831 24.652C72.7782 25.0213 71.8643 25.206 70.8416 25.206ZM77.7113 25L79.5295 14.0909H83.0025L81.1843 25H77.7113ZM81.511 12.8125C81.0186 12.8125 80.6185 12.6491 80.3107 12.3224C80.003 11.9957 79.8822 11.6051 79.9485 11.1506C80.0148 10.6913 80.2468 10.3007 80.6445 9.97869C81.0423 9.65672 81.485 9.49574 81.9727 9.49574C82.4651 9.49574 82.8604 9.65672 83.1587 9.97869C83.4618 10.3007 83.5801 10.6913 83.5138 11.1506C83.457 11.6051 83.2298 11.9957 82.832 12.3224C82.439 12.6491 81.9987 12.8125 81.511 12.8125ZM86.4418 25.1847C85.7505 25.1847 85.1539 25.0687 84.652 24.8366C84.1548 24.5999 83.7902 24.2424 83.5582 23.7642C83.331 23.286 83.2765 22.6894 83.3949 21.9744C83.4991 21.3684 83.6908 20.8594 83.9702 20.4474C84.2543 20.0308 84.6023 19.6922 85.0142 19.4318C85.4309 19.1714 85.8949 18.9725 86.4062 18.8352C86.9176 18.6979 87.4527 18.6056 88.0114 18.5582C88.6364 18.5014 89.143 18.4399 89.5312 18.3736C89.9242 18.3073 90.2178 18.215 90.4119 18.0966C90.6061 17.9735 90.7244 17.803 90.767 17.5852V17.5497C90.8239 17.1851 90.7457 16.9034 90.5327 16.7045C90.3196 16.5057 90 16.4062 89.5739 16.4062C89.1193 16.4062 88.7311 16.5057 88.4091 16.7045C88.0871 16.9034 87.8622 17.178 87.7344 17.5284L84.5526 17.4148C84.7514 16.7519 85.0923 16.16 85.5753 15.6392C86.0582 15.1136 86.6714 14.7017 87.4148 14.4034C88.1629 14.1004 89.027 13.9489 90.0071 13.9489C90.6984 13.9489 91.3234 14.0317 91.8821 14.1974C92.4408 14.3584 92.9119 14.5952 93.2955 14.9077C93.6837 15.2154 93.9607 15.5942 94.1264 16.044C94.2921 16.4938 94.3277 17.0076 94.233 17.5852L92.9901 25H89.723L89.9787 23.4801H89.8935C89.6378 23.8494 89.3371 24.1619 88.9915 24.4176C88.6506 24.6733 88.267 24.8651 87.8409 24.9929C87.4148 25.1207 86.9484 25.1847 86.4418 25.1847ZM87.9048 22.9119C88.2694 22.9119 88.6151 22.8362 88.9418 22.6847C89.2685 22.5331 89.5431 22.3248 89.7656 22.0597C89.9929 21.7898 90.1373 21.4773 90.1989 21.1222L90.3622 20.0852C90.2628 20.1373 90.1373 20.1847 89.9858 20.2273C89.8343 20.2699 89.6733 20.3101 89.5028 20.348C89.3324 20.3812 89.1572 20.4143 88.9773 20.4474C88.8021 20.4759 88.634 20.5019 88.473 20.5256C88.1321 20.5777 87.8362 20.6581 87.5852 20.767C87.3343 20.8759 87.133 21.018 86.9815 21.1932C86.8348 21.3636 86.7448 21.5672 86.7116 21.804C86.6548 22.1591 86.7377 22.4337 86.9602 22.6278C87.1828 22.8172 87.4976 22.9119 87.9048 22.9119ZM101.001 10.4545L98.5866 25H95.1136L97.5284 10.4545H101.001ZM105.094 25L107.509 10.4545H111.025L110.059 16.2926H115.79L116.756 10.4545H120.265L117.85 25H114.341L115.307 19.1548H109.576L108.61 25H105.094ZM127.875 20.2912L128.912 14.0909H132.377L130.559 25H127.25L127.583 22.9688H127.47C127.134 23.6364 126.639 24.1667 125.985 24.5597C125.332 24.9479 124.596 25.142 123.777 25.142C123.033 25.142 122.408 24.9716 121.902 24.6307C121.395 24.2898 121.035 23.8139 120.822 23.2031C120.614 22.5876 120.576 21.8679 120.708 21.044L121.873 14.0909H125.346L124.302 20.3622C124.212 20.9541 124.29 21.4205 124.537 21.7614C124.788 22.1023 125.181 22.2727 125.716 22.2727C126.061 22.2727 126.386 22.197 126.689 22.0455C126.992 21.8892 127.247 21.6643 127.456 21.3707C127.669 21.0724 127.808 20.7126 127.875 20.2912ZM132.77 25L135.185 10.4545H138.658L137.756 15.9588H137.827C138.016 15.6274 138.267 15.3078 138.58 15C138.897 14.6922 139.278 14.4413 139.723 14.2472C140.168 14.0483 140.677 13.9489 141.25 13.9489C142.008 13.9489 142.682 14.1477 143.274 14.5455C143.866 14.9432 144.297 15.5563 144.567 16.3849C144.837 17.2135 144.865 18.2694 144.652 19.5526C144.448 20.7884 144.081 21.8229 143.551 22.6562C143.021 23.4896 142.389 24.1146 141.655 24.5312C140.926 24.9479 140.159 25.1562 139.354 25.1562C138.804 25.1562 138.343 25.0663 137.969 24.8864C137.599 24.7064 137.304 24.4697 137.081 24.1761C136.863 23.8826 136.712 23.5677 136.626 23.2315H136.491L136.207 25H132.77ZM137.081 19.5455C136.986 20.1326 136.982 20.6439 137.067 21.0795C137.157 21.5152 137.33 21.8537 137.585 22.0952C137.846 22.3319 138.189 22.4503 138.615 22.4503C139.041 22.4503 139.422 22.3319 139.759 22.0952C140.095 21.8537 140.376 21.5152 140.604 21.0795C140.831 20.6439 140.992 20.1326 141.087 19.5455C141.181 18.9583 141.186 18.4493 141.101 18.0185C141.02 17.5876 140.852 17.2538 140.597 17.017C140.341 16.7803 139.998 16.6619 139.567 16.6619C139.141 16.6619 138.757 16.7779 138.416 17.0099C138.08 17.242 137.796 17.5734 137.564 18.0043C137.337 18.4351 137.176 18.9489 137.081 19.5455Z" fill="white"/>
<defs>
<linearGradient id="paint0_linear_161_991" x1="15" y1="3" x2="15" y2="33" gradientUnits="userSpaceOnUse">
<stop stop-color="#877EFF"/>
<stop offset="0.461458" stop-color="#685DFF"/>
<stop offset="1" stop-color="#3121FF"/>
</linearGradient>
</defs>
</svg>
